<svg xmlns="http://www.w3.org/2000/svg" viewBox="0 0 1024 1024"><rect width="832" height="832" x="96" y="96" rx="96" ry="96" style="fill:#fff;stroke:#231f20;stroke-miterlimit:10;stroke-width:32px"/><path d="M202.8 240.65c-12.05 0-18.69 5.51-18.69 13.01-.17 8.35 8.3 12.1 18.41 14.43l10.46 2.5c20.23 4.55 34.83 14.83 34.89 34.21-.06 21.31-16.76 34.89-45.17 34.89s-46.25-13.01-46.88-38.19h23.81c.8 11.65 10 17.56 22.79 17.56s20.57-5.8 20.63-14.32c-.06-7.84-7.1-11.48-19.77-14.55l-12.67-3.18c-19.66-4.72-31.76-14.55-31.71-31.71-.11-21.14 18.58-35.23 44.1-35.23s42.96 14.32 43.3 35.06h-23.58c-.91-9.15-8.13-14.49-19.89-14.49Zm51.98-18.98h95.58v20.29h-35.63v96.09h-24.32v-96.09h-35.63v-20.29Zm90.73 116.37 40.17-116.38h31.71l40.12 116.38h-26.37l-8.64-26.54h-41.99l-8.64 26.54H345.5Zm70.8-45.74-14.32-44.04h-.91l-14.32 44.04h29.55Zm151.5 45.74h-21.25l-50.63-73.25h-.85v73.25h-24.61V221.66h21.59l50.23 73.19h1.02v-73.19h24.49v116.38Zm16.27-116.37h24.61v96.09h49.89v20.29h-74.5V221.67Zm87.8 0h78.42v20.29h-53.81v27.73h49.78v20.29h-49.78v27.79h54.04v20.29h-78.64V221.68Zm113.74 0 26.54 50.12h1.14l26.54-50.12h27.56l-42.45 75.23v41.14h-24.43V296.9l-42.45-75.23h27.56Zm-625.81 157h73.46c42.27 0 66.73 23.82 66.73 60.82 0 25.46-11.73 43.91-32.91 53l39.55 72.37h-43.46l-35.27-66h-28.73v66h-39.37V378.67Zm66.09 88.55c22.55 0 33.55-9.27 33.55-27.73s-11-28.64-33.73-28.64h-26.55v56.37h26.73ZM413.33 567.4c-49.64 0-87.18-35-87.18-95.64s37.55-95.64 87.18-95.64 87.18 34.73 87.18 95.64-37.82 95.64-87.18 95.64Zm0-156.46c-28.64 0-47.27 21.36-47.27 60.82s18.64 60.82 47.27 60.82 47.27-21.36 47.27-60.82-18.73-60.82-47.27-60.82Zm115.26-32.27h74.55c41.09 0 61.82 19.82 61.82 47.73 0 21.91-14.27 35.64-33.64 40v1.82c21.18 1 40.91 17.64 40.91 45.18 0 29.64-22.27 51.46-64.09 51.46h-79.55V378.67Zm68.55 77.91c16.09 0 28.09-8.91 28.09-23.64 0-13.46-9.91-22.46-27.36-22.46h-29.91v46.09h29.18Zm2.91 76.09c22 0 31.55-9.18 31.55-23.18 0-15.36-11.73-26.27-30.64-26.27h-33v49.46h32.09Zm178.63 34.73c-49.64 0-87.18-35-87.18-95.64s37.55-95.64 87.18-95.64 87.18 34.73 87.18 95.64-37.82 95.64-87.18 95.64Zm0-156.46c-28.64 0-47.27 21.36-47.27 60.82s18.64 60.82 47.27 60.82 47.27-21.36 47.27-60.82-18.73-60.82-47.27-60.82ZM154.81 614.67h143.34v30.42h-53.43V789.2h-36.47V645.09h-53.43v-30.42Zm205.93 174.54h-36.9V614.68h36.9v174.53Zm149.09-113.43c-2.81-19.17-17.38-30.85-37.58-30.85-27.01 0-44.74 20.71-44.74 57.01s17.98 57.01 44.49 57.01c19.69 0 34.34-10.74 37.84-29.4l37.33.17c-4 32.13-31.02 61.87-75.76 61.87s-81.3-32.72-81.3-89.65 35.2-89.65 81.3-89.65c40.39 0 70.9 23.18 75.76 63.49h-37.33Zm63.84-61.11h36.9v76.95h2.3l62.81-76.95h44.23l-64.77 78.15 65.53 96.38h-44.14l-47.81-71.76-18.15 22.16v49.6h-36.9V614.67Zm226.61 28.47c-18.07 0-28.04 8.27-28.04 19.52-.26 12.53 12.44 18.15 27.61 21.65l15.68 3.75c30.34 6.82 52.24 22.24 52.33 51.3-.08 31.96-25.14 52.33-67.75 52.33s-69.37-19.51-70.31-57.27h35.71c1.19 17.47 15 26.33 34.17 26.33s30.85-8.69 30.93-21.48c-.08-11.76-10.65-17.21-29.66-21.82l-19-4.77c-29.49-7.07-47.64-21.82-47.55-47.55-.17-31.7 27.87-52.84 66.13-52.84s64.43 21.48 64.94 52.58H830.1c-1.36-13.72-12.19-21.73-29.83-21.73Z" style="stroke-width:0"/></svg>